<svg xmlns="http://www.w3.org/2000/svg" viewBox="0 0 512 512"><rect width="512" height="512" rx="112" fill="#2E4A33"/><path d="M116 120h280v170c0 70-60 110-140 132-80-22-140-62-140-132z" fill="#3A3A3A" stroke="#F7EFD9" stroke-width="14"/><g fill="#4CC943"><path d="M190 170l-38 70h20l-30 50h96l-30-50h20z"/><path d="M322 170l-38 70h20l-30 50h96l-30-50h20z"/><path d="M256 140l-46 86h24l-38 70h120l-38-70h24z"/></g><rect x="150" y="296" width="212" height="8" fill="#4CC943"/><path d="M92 318h328l-24 30 24 30H92l24-30z" fill="#F7EFD9" stroke="#3A3A3A" stroke-width="6"/><text x="256" y="360" font-family="Arial Narrow,Arial,sans-serif" font-weight="700" font-size="38" letter-spacing="4" text-anchor="middle" fill="#3A3A3A">PINEWOODS</text></svg>
